<svg width="30" height="22" viewBox="0 0 30 22" fill="none" xmlns="http://www.w3.org/2000/svg">
    <path d="M1.875 12L4.46484 12L1.94531 19.4531C1.89007 19.5916 1.85903 19.7422 1.85412 19.8956C1.8492 20.0491 1.87051 20.2021 1.91673 20.3452C1.96296 20.4884 2.03311 20.6187 2.12288 20.7281C2.21265 20.8375 2.32013 20.9237 2.4387 20.9814C2.55728 21.0391 2.68444 21.0671 2.81236 21.0635C2.94027 21.06 3.06624 21.0251 3.18249 20.961C3.29875 20.8969 3.40283 20.8049 3.48834 20.6907C3.57385 20.5764 3.63896 20.4424 3.67968 20.2969L6.49218 12L11.3203 12L14.1328 20.2969C14.2034 20.5032 14.3236 20.6797 14.478 20.8039C14.6324 20.9281 14.8141 20.9944 15 20.9944C15.1859 20.9944 15.3676 20.9281 15.522 20.8039C15.6764 20.6797 15.7966 20.5032 15.8672 20.2969L18.6797 12L23.5078 12L26.3203 20.2969C26.361 20.4424 26.4262 20.5764 26.5117 20.6907C26.5972 20.8049 26.7012 20.8969 26.8175 20.961C26.9338 21.0251 27.0597 21.06 27.1876 21.0635C27.3156 21.0671 27.4427 21.0391 27.5613 20.9814C27.6799 20.9237 27.7873 20.8375 27.8771 20.7281C27.9669 20.6187 28.037 20.4884 28.0833 20.3452C28.1295 20.2021 28.1508 20.0491 28.1459 19.8956C28.141 19.7422 28.1099 19.5916 28.0547 19.4531L25.5352 12L28.125 12C28.3736 12 28.6121 11.8815 28.7879 11.6705C28.9637 11.4595 29.0625 11.1734 29.0625 10.875C29.0625 10.5766 28.9637 10.2905 28.7879 10.0795C28.6121 9.86852 28.3736 9.75 28.125 9.75L24.7734 9.75L21.9609 1.45312C21.8903 1.24678 21.7702 1.0703 21.6157 0.946099C21.4613 0.821897 21.2796 0.755583 21.0938 0.755583C20.9079 0.755583 20.7262 0.821897 20.5718 0.946099C20.4173 1.0703 20.2972 1.24678 20.2266 1.45312L17.4141 9.75L12.5859 9.75L9.77344 1.45312C9.7028 1.24678 9.58265 1.0703 9.42824 0.946098C9.27383 0.821896 9.09214 0.755582 8.90625 0.755582C8.72036 0.755582 8.53867 0.821896 8.38426 0.946098C8.22985 1.0703 8.10969 1.24678 8.03906 1.45312L5.22656 9.74999L1.875 9.74999C1.62636 9.74999 1.3879 9.86852 1.21208 10.0795C1.03627 10.2905 0.937497 10.5766 0.937497 10.875C0.937497 11.1734 1.03627 11.4595 1.21208 11.6705C1.3879 11.8815 1.62636 12 1.875 12ZM21.0938 4.87031L22.7461 9.75L19.4414 9.75L21.0938 4.87031ZM16.6523 12L15 16.8797L13.3477 12L16.6523 12ZM8.90625 4.87031L10.5586 9.75L7.2539 9.74999L8.90625 4.87031Z" fill="#F6F6F6"/>
</svg>
