<svg width="34" height="16" viewBox="0 0 34 16" fill="none" xmlns="http://www.w3.org/2000/svg">
    <path d="M13.4632 12.247L13.0005 12.7673C12.0884 13.7081 10.9268 14.3485 9.66265 14.6075C8.39847 14.8664 7.08837 14.7323 5.8979 14.2222C4.70744 13.712 3.69004 12.8486 2.97426 11.7412C2.25849 10.6337 1.87646 9.33184 1.87646 8.0001C1.87646 6.66836 2.25849 5.3665 2.97426 4.25904C3.69004 3.15157 4.70744 2.28821 5.8979 1.77803C7.08837 1.26786 8.39847 1.13378 9.66265 1.39273C10.9268 1.65169 12.0884 2.29205 13.0005 3.23291L21.193 12.7673C22.1051 13.7081 23.2666 14.3485 24.5308 14.6075C25.795 14.8664 27.1051 14.7323 28.2956 14.2222C29.486 13.712 30.5034 12.8486 31.2192 11.7412C31.935 10.6337 32.317 9.33184 32.317 8.0001C32.317 6.66836 31.935 5.3665 31.2192 4.25904C30.5034 3.15157 29.486 2.28821 28.2956 1.77803C27.1051 1.26786 25.795 1.13378 24.5308 1.39273C23.2666 1.65169 22.1051 2.29205 21.193 3.23291L20.7303 3.75323" stroke="#F6F6F6" stroke-width="2.25" stroke-linecap="round" stroke-linejoin="round"/>
</svg>
