<svg width="14" height="14" viewBox="0 0 14 14" fill="none" xmlns="http://www.w3.org/2000/svg">
    <path
        d="M2.91667 6.41667H5.25C5.89167 6.41667 6.41667 5.89167 6.41667 5.25V2.91667C6.41667 2.275 5.89167 1.75 5.25 1.75H2.91667C2.275 1.75 1.75 2.275 1.75 2.91667V5.25C1.75 5.89167 2.275 6.41667 2.91667 6.41667ZM2.91667 2.91667H5.25V5.25H2.91667V2.91667Z"
        fill="white" />
    <path
        d="M2.91667 12.25H5.25C5.89167 12.25 6.41667 11.725 6.41667 11.0833V8.75C6.41667 8.10833 5.89167 7.58333 5.25 7.58333H2.91667C2.275 7.58333 1.75 8.10833 1.75 8.75V11.0833C1.75 11.725 2.275 12.25 2.91667 12.25ZM2.91667 8.75H5.25V11.0833H2.91667V8.75Z"
        fill="white" />
    <path
        d="M7.58333 2.91667V5.25C7.58333 5.89167 8.10833 6.41667 8.75 6.41667H11.0833C11.725 6.41667 12.25 5.89167 12.25 5.25V2.91667C12.25 2.275 11.725 1.75 11.0833 1.75H8.75C8.10833 1.75 7.58333 2.275 7.58333 2.91667ZM11.0833 5.25H8.75V2.91667H11.0833V5.25Z"
        fill="white" />
    <path
        d="M12.25 11.9583V11.375C12.25 11.2117 12.1217 11.0833 11.9583 11.0833H11.375C11.2117 11.0833 11.0833 11.2117 11.0833 11.375V11.9583C11.0833 12.1217 11.2117 12.25 11.375 12.25H11.9583C12.1217 12.25 12.25 12.1217 12.25 11.9583Z"
        fill="white" />
    <path
        d="M7.58333 7.875V8.45833C7.58333 8.62167 7.71167 8.75 7.875 8.75H8.45833C8.62167 8.75 8.75 8.62167 8.75 8.45833V7.875C8.75 7.71167 8.62167 7.58333 8.45833 7.58333H7.875C7.71167 7.58333 7.58333 7.71167 7.58333 7.875Z"
        fill="white" />
    <path
        d="M9.625 8.75H9.04167C8.87833 8.75 8.75 8.87833 8.75 9.04167V9.625C8.75 9.78833 8.87833 9.91667 9.04167 9.91667H9.625C9.78833 9.91667 9.91667 9.78833 9.91667 9.625V9.04167C9.91667 8.87833 9.78833 8.75 9.625 8.75Z"
        fill="white" />
    <path
        d="M7.58333 10.2083V10.7917C7.58333 10.955 7.71167 11.0833 7.875 11.0833H8.45833C8.62167 11.0833 8.75 10.955 8.75 10.7917V10.2083C8.75 10.045 8.62167 9.91667 8.45833 9.91667H7.875C7.71167 9.91667 7.58333 10.045 7.58333 10.2083Z"
        fill="white" />
    <path
        d="M9.04167 12.25H9.625C9.78833 12.25 9.91667 12.1217 9.91667 11.9583V11.375C9.91667 11.2117 9.78833 11.0833 9.625 11.0833H9.04167C8.87833 11.0833 8.75 11.2117 8.75 11.375V11.9583C8.75 12.1217 8.87833 12.25 9.04167 12.25Z"
        fill="white" />
    <path
        d="M10.2083 11.0833H10.7917C10.955 11.0833 11.0833 10.955 11.0833 10.7917V10.2083C11.0833 10.045 10.955 9.91667 10.7917 9.91667H10.2083C10.045 9.91667 9.91667 10.045 9.91667 10.2083V10.7917C9.91667 10.955 10.045 11.0833 10.2083 11.0833Z"
        fill="white" />
    <path
        d="M10.7917 7.58333H10.2083C10.045 7.58333 9.91667 7.71167 9.91667 7.875V8.45833C9.91667 8.62167 10.045 8.75 10.2083 8.75H10.7917C10.955 8.75 11.0833 8.62167 11.0833 8.45833V7.875C11.0833 7.71167 10.955 7.58333 10.7917 7.58333Z"
        fill="white" />
    <path
        d="M11.375 9.91667H11.9583C12.1217 9.91667 12.25 9.78833 12.25 9.625V9.04167C12.25 8.87833 12.1217 8.75 11.9583 8.75H11.375C11.2117 8.75 11.0833 8.87833 11.0833 9.04167V9.625C11.0833 9.78833 11.2117 9.91667 11.375 9.91667Z"
        fill="white" />
</svg>